<svg class="border shadow-md" viewBox="0 0 1132.6577777777777 637.12" style="width: 1132.66px; height: 637.12px;" xmlns="http://www.w3.org/2000/svg" preserveAspectRatio="none">
  <rect class="bg" id="bg" x="0" y="0" width="1132.6577777777777" height="637.12" fill="#ffffff"/>
  <g transform="rotate(0 566.3288888888889 318.56)">
    <path id="-1" d="M -666.33 -33.71 S -343.16 -65.57&#10;            0.00 -33.71 323.16 -88.71&#10;            666.33 -33.71 989.49 -77.71&#10;            1332.66 -33.71 1655.82 -81.71&#10;            1998.99 -33.71 h 110 V 837.12 H -666.33 Z" fill="#BBE3FC"/>
    <path id="0" d="M -666.33 30.00 S -343.16 -24.00&#10;            0.00 30.00 323.16 -1.86&#10;            666.33 30.00 662.66 -30.00&#10;            1332.66 30.00 1438.99 -29.00&#10;            1998.99 30.00 h 110 V 837.12 H -666.33 Z" fill="#b4dcf3"/>
    <path id="1" d="M -666.33 93.71 S -343.16 56.71&#10;            0.00 93.71 62.33 61.86&#10;            666.33 93.71 989.49 61.86&#10;            1332.66 93.71 1655.82 61.86&#10;            1998.99 93.71 h 110 V 837.12 H -666.33 Z" fill="#add5ea"/>
    <path id="2" d="M -666.33 157.42 S -632.00 104.42&#10;            0.00 157.42 124.33 122.42&#10;            666.33 157.42 989.49 125.57&#10;            1332.66 157.42 1655.82 106.42&#10;            1998.99 157.42 h 110 V 837.12 H -666.33 Z" fill="#a6cee1"/>
    <path id="3" d="M -666.33 221.14 S -343.16 166.14&#10;            0.00 221.14 323.16 161.14&#10;            666.33 221.14 832.66 189.28&#10;            1332.66 221.14 1655.82 189.28&#10;            1998.99 221.14 h 110 V 837.12 H -666.33 Z" fill="#9fc7d8"/>
    <path id="4" d="M -666.33 284.85 S -396.00 226.85&#10;            0.00 284.85 253.33 248.85&#10;            666.33 284.85 989.49 245.85&#10;            1332.66 284.85 1655.82 252.99&#10;            1998.99 284.85 h 110 V 837.12 H -666.33 Z" fill="#98c0cf"/>
    <path id="5" d="M -666.33 348.56 S -343.16 316.70&#10;            0.00 348.56 323.16 316.70&#10;            666.33 348.56 859.66 299.56&#10;            1332.66 348.56 1494.99 316.70&#10;            1998.99 348.56 h 110 V 837.12 H -666.33 Z" fill="#91b9c6"/>
    <path id="6" d="M -666.33 412.27 S -468.00 380.42&#10;            0.00 412.27 323.16 380.42&#10;            666.33 412.27 989.49 380.42&#10;            1332.66 412.27 1655.82 380.42&#10;            1998.99 412.27 h 110 V 837.12 H -666.33 Z" fill="#8ab2bd"/>
    <path id="7" d="M -666.33 475.98 S -343.16 444.13&#10;            0.00 475.98 323.16 444.13&#10;            666.33 475.98 989.49 436.98&#10;            1332.66 475.98 1655.82 437.98&#10;            1998.99 475.98 h 110 V 837.12 H -666.33 Z" fill="#83abb4"/>
    <path id="8" d="M -666.33 539.70 S -343.16 507.84&#10;            0.00 539.70 323.16 507.84&#10;            666.33 539.70 989.49 495.70&#10;            1332.66 539.70 1655.82 477.70&#10;            1998.99 539.70 h 110 V 837.12 H -666.33 Z" fill="#7ca4ab"/>
    <path id="9" d="M -666.33 603.41 S -343.16 571.55&#10;            0.00 603.41 53.33 571.55&#10;            666.33 603.41 989.49 571.55&#10;            1332.66 603.41 1655.82 553.41&#10;            1998.99 603.41 h 110 V 837.12 H -666.33 Z" fill="#759da2"/>
  </g>
</svg>